<svg xmlns="http://www.w3.org/2000/svg" version="1.1" viewBox="0 0 1908 1379" width="1908" height="1379"><defs></defs><g><g class="cluster" data-entity="interfaces" data-qualified-name="interfaces" id="ent0002" data-source-line="8"><path d="M571.28,145 L638.42,145 A3.75,3.75 0 0 1 640.92,147.50 L647.92,166 L860.02,166 A2.50,2.50 0 0 1 862.52,168.50 L862.52,632.50 A2.50,2.50 0 0 1 860.02,635.00 L571.28,635.00 A2.50,2.50 0 0 1 568.78,632.50 L568.78,147.50 A2.50,2.50 0 0 1 571.28,145" fill="#00000000" stroke="#000000" stroke-width="1.50"></path><line x1="568.78" y1="166" x2="647.92" y2="166" stroke="#000000" stroke-width="1.50"></line><text x="572.78" y="159" font-size="14" fill="#000000" xml:space="preserve" style="white-space: pre" font-weight="bold" font-family="sans-serif">interfaces</text></g><g class="cluster" data-entity="adaptadores" data-qualified-name="adaptadores" id="ent0006" data-source-line="28"><path d="M1029.79,61 L1114.04,61 A3.75,3.75 0 0 1 1116.54,63.50 L1123.54,82 L1423.26,82 A2.50,2.50 0 0 1 1425.76,84.50 L1425.76,1212.50 A2.50,2.50 0 0 1 1423.26,1215 L1029.79,1215 A2.50,2.50 0 0 1 1027.29,1212.50 L1027.29,63.50 A2.50,2.50 0 0 1 1029.79,61" fill="#00000000" stroke="#000000" stroke-width="1.50"></path><line x1="1027.29" y1="82" x2="1123.54" y2="82" stroke="#000000" stroke-width="1.50"></line><text x="1031.29" y="75" font-size="14" fill="#000000" xml:space="preserve" style="white-space: pre" font-weight="bold" font-family="sans-serif">adaptadores</text></g><g class="cluster" data-entity="br" data-qualified-name="br" id="ent0015" data-source-line="74"><path d="M1559.66,6 L1574.66,6 A3.75,3.75 0 0 1 1577.16,8.50 L1584.16,27 L1896.39,27 A2.50,2.50 0 0 1 1898.89,29.50 L1898.89,1258.50 A2.50,2.50 0 0 1 1896.39,1261 L1559.66,1261 A2.50,2.50 0 0 1 1557.16,1258.50 L1557.16,8.50 A2.50,2.50 0 0 1 1559.66,6" fill="#00000000" stroke="#000000" stroke-width="1.50"></path><line x1="1557.16" y1="27" x2="1584.16" y2="27" stroke="#000000" stroke-width="1.50"></line><text x="1561.16" y="20" font-size="14" fill="#000000" xml:space="preserve" style="white-space: pre" font-weight="bold" font-family="sans-serif">br</text></g><g class="cluster" data-entity="furb" data-qualified-name="br.furb" id="ent0016" data-source-line="74"><path d="M1567.66,32 L1595.87,32 A3.75,3.75 0 0 1 1598.37,34.50 L1605.37,53 L1888.39,53 A2.50,2.50 0 0 1 1890.89,55.50 L1890.89,1250.50 A2.50,2.50 0 0 1 1888.39,1253 L1567.66,1253 A2.50,2.50 0 0 1 1565.16,1250.50 L1565.16,34.50 A2.50,2.50 0 0 1 1567.66,32" fill="#00000000" stroke="#000000" stroke-width="1.50"></path><line x1="1565.16" y1="53" x2="1605.37" y2="53" stroke="#000000" stroke-width="1.50"></line><text x="1569.16" y="46" font-size="14" fill="#000000" xml:space="preserve" style="white-space: pre" font-weight="bold" font-family="sans-serif">furb</text></g><g class="cluster" data-entity="analise" data-qualified-name="br.furb.analise" id="ent0017" data-source-line="74"><path d="M1575.66,58 L1624.14,58 A3.75,3.75 0 0 1 1626.64,60.50 L1633.64,79 L1880.39,79 A2.50,2.50 0 0 1 1882.89,81.50 L1882.89,1242.50 A2.50,2.50 0 0 1 1880.39,1245 L1575.66,1245 A2.50,2.50 0 0 1 1573.16,1242.50 L1573.16,60.50 A2.50,2.50 0 0 1 1575.66,58" fill="#00000000" stroke="#000000" stroke-width="1.50"></path><line x1="1573.16" y1="79" x2="1633.64" y2="79" stroke="#000000" stroke-width="1.50"></line><text x="1577.16" y="72" font-size="14" fill="#000000" xml:space="preserve" style="white-space: pre" font-weight="bold" font-family="sans-serif">analise</text></g><g class="cluster" data-entity="algoritmos" data-qualified-name="br.furb.analise.algoritmos" id="ent0013" data-source-line="73"><path d="M1583.66,84 L1656.23,84 A3.75,3.75 0 0 1 1658.73,86.50 L1665.73,105 L1872.39,105 A2.50,2.50 0 0 1 1874.89,107.50 L1874.89,1234.50 A2.50,2.50 0 0 1 1872.39,1237 L1583.66,1237 A2.50,2.50 0 0 1 1581.16,1234.50 L1581.16,86.50 A2.50,2.50 0 0 1 1583.66,84" fill="#00000000" stroke="#000000" stroke-width="1.50"></path><line x1="1581.16" y1="105" x2="1665.73" y2="105" stroke="#000000" stroke-width="1.50"></line><text x="1585.16" y="98" font-size="14" fill="#000000" xml:space="preserve" style="white-space: pre" font-weight="bold" font-family="sans-serif">algoritmos</text><text x="1699.34" y="119" font-size="14" fill="#000000" xml:space="preserve" style="white-space: pre" font-style="italic" font-family="sans-serif">«external»</text></g><g class="entity" data-entity="Lampada" data-qualified-name="interfaces.Lampada" id="ent0003" data-source-line="9"><rect x="659.66" y="170.50" width="111.99" height="71" rx="2.50" ry="2.50" fill="#F1F1F1" stroke="#181818" stroke-width="0.50"></rect><text x="686.47" y="187.50" font-size="14" fill="#000000" xml:space="preserve" style="white-space: pre" font-style="italic" font-family="sans-serif">Lampada</text><line x1="660.66" y1="195.50" x2="770.65" y2="195.50" stroke="#181818" stroke-width="0.50"></line><line x1="660.66" y1="203.50" x2="770.65" y2="203.50" stroke="#181818" stroke-width="0.50"></line><text x="665.66" y="219.50" font-size="14" fill="#000000" xml:space="preserve" style="white-space: pre" font-family="sans-serif">+ligar(): void</text><text x="665.66" y="234.50" font-size="14" fill="#000000" xml:space="preserve" style="white-space: pre" font-family="sans-serif">+desligar(): void</text></g><g class="entity" data-entity="Persiana" data-qualified-name="interfaces.Persiana" id="ent0004" data-source-line="14"><rect x="664.71" y="556.50" width="101.87" height="71" rx="2.50" ry="2.50" fill="#F1F1F1" stroke="#181818" stroke-width="0.50"></rect><text x="688.02" y="573.50" font-size="14" fill="#000000" xml:space="preserve" style="white-space: pre" font-style="italic" font-family="sans-serif">Persiana</text><line x1="665.71" y1="581.50" x2="765.58" y2="581.50" stroke="#181818" stroke-width="0.50"></line><line x1="665.71" y1="589.50" x2="765.58" y2="589.50" stroke="#181818" stroke-width="0.50"></line><text x="670.71" y="605.50" font-size="14" fill="#000000" xml:space="preserve" style="white-space: pre" font-family="sans-serif">+abrir(): void</text><text x="670.71" y="620.50" font-size="14" fill="#000000" xml:space="preserve" style="white-space: pre" font-family="sans-serif">+fechar(): void</text></g><g class="entity" data-entity="ArCondicionado" data-qualified-name="interfaces.ArCondicionado" id="ent0005" data-source-line="19"><rect x="576.78" y="341" width="277.73" height="116" rx="2.50" ry="2.50" fill="#F1F1F1" stroke="#181818" stroke-width="0.50"></rect><text x="665.84" y="358" font-size="14" fill="#000000" xml:space="preserve" style="white-space: pre" font-style="italic" font-family="sans-serif">ArCondicionado</text><line x1="577.78" y1="366" x2="853.51" y2="366" stroke="#181818" stroke-width="0.50"></line><line x1="577.78" y1="374" x2="853.51" y2="374" stroke="#181818" stroke-width="0.50"></line><text x="582.78" y="390" font-size="14" fill="#000000" xml:space="preserve" style="white-space: pre" font-family="sans-serif">+ligar(): void</text><text x="582.78" y="405" font-size="14" fill="#000000" xml:space="preserve" style="white-space: pre" font-family="sans-serif">+desligar(): void</text><text x="582.78" y="420" font-size="14" fill="#000000" xml:space="preserve" style="white-space: pre" font-family="sans-serif">+aumentarTemperatura(): void</text><text x="582.78" y="435" font-size="14" fill="#000000" xml:space="preserve" style="white-space: pre" font-family="sans-serif">+diminuirTemperatura(): void</text><text x="582.78" y="450" font-size="14" fill="#000000" xml:space="preserve" style="white-space: pre" font-family="sans-serif">+definirTemperatura(temperatura: int): void</text></g><g class="entity" data-entity="LampadaInteligentePhellipesAdaptador" data-qualified-name="adaptadores.LampadaInteligentePhellipesAdaptador" id="ent0007" data-source-line="29"><rect x="1101.32" y="519.00" width="250.41" height="86" rx="2.50" ry="2.50" fill="#F1F1F1" stroke="#181818" stroke-width="0.50"></rect><text x="1104.32" y="536.00" font-size="14" fill="#000000" xml:space="preserve" style="white-space: pre" font-family="sans-serif">LampadaInteligentePhellipesAdaptador</text><line x1="1102.32" y1="544.00" x2="1350.73" y2="544.00" stroke="#181818" stroke-width="0.50"></line><text x="1107.32" y="560.00" font-size="14" fill="#000000" xml:space="preserve" style="white-space: pre" font-family="sans-serif">-lampadaPhellipes: LampadaPhellipes</text><line x1="1102.32" y1="567.00" x2="1350.73" y2="567.00" stroke="#181818" stroke-width="0.50"></line><text x="1107.32" y="583.00" font-size="14" fill="#000000" xml:space="preserve" style="white-space: pre" font-family="sans-serif">+ligar(): void</text><text x="1107.32" y="598.00" font-size="14" fill="#000000" xml:space="preserve" style="white-space: pre" font-family="sans-serif">+desligar(): void</text></g><g class="entity" data-entity="LampadaInteligenteShoyouMiAdaptador" data-qualified-name="adaptadores.LampadaInteligenteShoyouMiAdaptador" id="ent0008" data-source-line="35"><rect x="1098.60" y="87" width="255.85" height="86" rx="2.50" ry="2.50" fill="#F1F1F1" stroke="#181818" stroke-width="0.50"></rect><text x="1101.60" y="104" font-size="14" fill="#000000" xml:space="preserve" style="white-space: pre" font-family="sans-serif">LampadaInteligenteShoyouMiAdaptador</text><line x1="1099.60" y1="112" x2="1353.45" y2="112" stroke="#181818" stroke-width="0.50"></line><text x="1104.60" y="128" font-size="14" fill="#000000" xml:space="preserve" style="white-space: pre" font-family="sans-serif">-lampadaShoyuMi: LampadaShoyuMi</text><line x1="1099.60" y1="135" x2="1353.45" y2="135" stroke="#181818" stroke-width="0.50"></line><text x="1104.60" y="151" font-size="14" fill="#000000" xml:space="preserve" style="white-space: pre" font-family="sans-serif">+ligar(): void</text><text x="1104.60" y="166" font-size="14" fill="#000000" xml:space="preserve" style="white-space: pre" font-family="sans-serif">+desligar(): void</text></g><g class="entity" data-entity="PersianaSolariusAdaptador" data-qualified-name="adaptadores.PersianaSolariusAdaptador" id="ent0009" data-source-line="41"><rect x="1109.24" y="935.00" width="234.56" height="86" rx="2.50" ry="2.50" fill="#F1F1F1" stroke="#181818" stroke-width="0.50"></rect><text x="1141.30" y="952.00" font-size="14" fill="#000000" xml:space="preserve" style="white-space: pre" font-family="sans-serif">PersianaSolariusAdaptador</text><line x1="1110.24" y1="960.00" x2="1342.80" y2="960.00" stroke="#181818" stroke-width="0.50"></line><text x="1115.24" y="976.00" font-size="14" fill="#000000" xml:space="preserve" style="white-space: pre" font-family="sans-serif">-persianaSolarius: PersianaSolarius</text><line x1="1110.24" y1="983.00" x2="1342.80" y2="983.00" stroke="#181818" stroke-width="0.50"></line><text x="1115.24" y="999.00" font-size="14" fill="#000000" xml:space="preserve" style="white-space: pre" font-family="sans-serif">+abrir(): void</text><text x="1115.24" y="1014.00" font-size="14" fill="#000000" xml:space="preserve" style="white-space: pre" font-family="sans-serif">+fechar(): void</text></g><g class="entity" data-entity="PersianaNatLightAdaptador" data-qualified-name="adaptadores.PersianaNatLightAdaptador" id="ent0010" data-source-line="47"><rect x="1107.68" y="1121" width="237.69" height="86" rx="2.50" ry="2.50" fill="#F1F1F1" stroke="#181818" stroke-width="0.50"></rect><text x="1140.52" y="1138" font-size="14" fill="#000000" xml:space="preserve" style="white-space: pre" font-family="sans-serif">PersianaNatLightAdaptador</text><line x1="1108.68" y1="1146" x2="1344.37" y2="1146" stroke="#181818" stroke-width="0.50"></line><text x="1113.68" y="1162" font-size="14" fill="#000000" xml:space="preserve" style="white-space: pre" font-family="sans-serif">-persianaNatLight: PersianaNatLight</text><line x1="1108.68" y1="1169" x2="1344.37" y2="1169" stroke="#181818" stroke-width="0.50"></line><text x="1113.68" y="1185" font-size="14" fill="#000000" xml:space="preserve" style="white-space: pre" font-family="sans-serif">+abrir(): void</text><text x="1113.68" y="1200" font-size="14" fill="#000000" xml:space="preserve" style="white-space: pre" font-family="sans-serif">+fechar(): void</text></g><g class="entity" data-entity="ArCondicionadoVentoBaumnAdaptador" data-qualified-name="adaptadores.ArCondicionadoVentoBaumnAdaptador" id="ent0011" data-source-line="53"><rect x="1035.29" y="273" width="382.47" height="146" rx="2.50" ry="2.50" fill="#F1F1F1" stroke="#181818" stroke-width="0.50"></rect><text x="1104.33" y="290" font-size="14" fill="#000000" xml:space="preserve" style="white-space: pre" font-family="sans-serif">ArCondicionadoVentoBaumnAdaptador</text><line x1="1036.29" y1="298" x2="1416.76" y2="298" stroke="#181818" stroke-width="0.50"></line><text x="1041.29" y="314" font-size="14" fill="#000000" xml:space="preserve" style="white-space: pre" font-family="sans-serif">-arCondicionadoVentoBaumn: ArCondicionadoVentoBaumn</text><line x1="1036.29" y1="321" x2="1416.76" y2="321" stroke="#181818" stroke-width="0.50"></line><text x="1041.29" y="337" font-size="14" fill="#000000" xml:space="preserve" style="white-space: pre" font-family="sans-serif">+ligar(): void</text><text x="1041.29" y="352" font-size="14" fill="#000000" xml:space="preserve" style="white-space: pre" font-family="sans-serif">+desligar(): void</text><text x="1041.29" y="367" font-size="14" fill="#000000" xml:space="preserve" style="white-space: pre" font-family="sans-serif">+aumentarTemperatura(): void</text><text x="1041.29" y="382" font-size="14" fill="#000000" xml:space="preserve" style="white-space: pre" font-family="sans-serif">+diminuirTemperatura(): void</text><text x="1041.29" y="397" font-size="14" fill="#000000" xml:space="preserve" style="white-space: pre" font-family="sans-serif">+definirTemperatura(temperatura: int): void</text><text x="1041.29" y="412" font-size="14" fill="#000000" xml:space="preserve" style="white-space: pre" font-family="sans-serif">-getTemperatura(): int</text></g><g class="entity" data-entity="ArCondicionadoGellaKazaAdaptador" data-qualified-name="adaptadores.ArCondicionadoGellaKazaAdaptador" id="ent0012" data-source-line="63"><rect x="1050.87" y="704.50" width="351.32" height="131" rx="2.50" ry="2.50" fill="#F1F1F1" stroke="#181818" stroke-width="0.50"></rect><text x="1112.12" y="721.50" font-size="14" fill="#000000" xml:space="preserve" style="white-space: pre" font-family="sans-serif">ArCondicionadoGellaKazaAdaptador</text><line x1="1051.87" y1="729.50" x2="1401.19" y2="729.50" stroke="#181818" stroke-width="0.50"></line><text x="1056.87" y="745.50" font-size="14" fill="#000000" xml:space="preserve" style="white-space: pre" font-family="sans-serif">-arCondicionadoGellaKaza: ArCondicionadoGellaKaza</text><line x1="1051.87" y1="752.50" x2="1401.19" y2="752.50" stroke="#181818" stroke-width="0.50"></line><text x="1056.87" y="768.50" font-size="14" fill="#000000" xml:space="preserve" style="white-space: pre" font-family="sans-serif">+ligar(): void</text><text x="1056.87" y="783.50" font-size="14" fill="#000000" xml:space="preserve" style="white-space: pre" font-family="sans-serif">+desligar(): void</text><text x="1056.87" y="798.50" font-size="14" fill="#000000" xml:space="preserve" style="white-space: pre" font-family="sans-serif">+aumentarTemperatura(): void</text><text x="1056.87" y="813.50" font-size="14" fill="#000000" xml:space="preserve" style="white-space: pre" font-family="sans-serif">+diminuirTemperatura(): void</text><text x="1056.87" y="828.50" font-size="14" fill="#000000" xml:space="preserve" style="white-space: pre" font-family="sans-serif">+definirTemperatura(temperatura: int): void</text></g><g class="entity" data-entity="LampadaPhellipes" data-qualified-name="br.furb.analise.algoritmos.LampadaPhellipes" id="ent0014" data-source-line="74"><rect x="1603.92" y="511.50" width="248.21" height="71" rx="2.50" ry="2.50" fill="#F1F1F1" stroke="#181818" stroke-width="0.50"></rect><text x="1670.43" y="528.50" font-size="14" fill="#000000" xml:space="preserve" style="white-space: pre" font-family="sans-serif">LampadaPhellipes</text><line x1="1604.92" y1="536.50" x2="1851.13" y2="536.50" stroke="#181818" stroke-width="0.50"></line><line x1="1604.92" y1="544.50" x2="1851.13" y2="544.50" stroke="#181818" stroke-width="0.50"></line><text x="1609.92" y="560.50" font-size="14" fill="#000000" xml:space="preserve" style="white-space: pre" font-family="sans-serif">+getIntensidade(): int</text><text x="1609.92" y="575.50" font-size="14" fill="#000000" xml:space="preserve" style="white-space: pre" font-family="sans-serif">+setIntensidade(intensidade: int): void</text></g><g class="entity" data-entity="LampadaShoyuMi" data-qualified-name="br.furb.analise.algoritmos.LampadaShoyuMi" id="ent0018" data-source-line="79"><rect x="1650.22" y="125" width="155.61" height="86" rx="2.50" ry="2.50" fill="#F1F1F1" stroke="#181818" stroke-width="0.50"></rect><text x="1671.60" y="142" font-size="14" fill="#000000" xml:space="preserve" style="white-space: pre" font-family="sans-serif">LampadaShoyuMi</text><line x1="1651.22" y1="150" x2="1804.83" y2="150" stroke="#181818" stroke-width="0.50"></line><line x1="1651.22" y1="158" x2="1804.83" y2="158" stroke="#181818" stroke-width="0.50"></line><text x="1656.22" y="174" font-size="14" fill="#000000" xml:space="preserve" style="white-space: pre" font-family="sans-serif">+ligar(): void</text><text x="1656.22" y="189" font-size="14" fill="#000000" xml:space="preserve" style="white-space: pre" font-family="sans-serif">+desligar(): void</text><text x="1656.22" y="204" font-size="14" fill="#000000" xml:space="preserve" style="white-space: pre" font-family="sans-serif">+estaLigada(): boolean</text></g><g class="entity" data-entity="PersianaSolarius" data-qualified-name="br.furb.analise.algoritmos.PersianaSolarius" id="ent0019" data-source-line="85"><rect x="1647.90" y="913.00" width="160.24" height="86" rx="2.50" ry="2.50" fill="#F1F1F1" stroke="#181818" stroke-width="0.50"></rect><text x="1675.10" y="930.00" font-size="14" fill="#000000" xml:space="preserve" style="white-space: pre" font-family="sans-serif">PersianaSolarius</text><line x1="1648.90" y1="938.00" x2="1807.14" y2="938.00" stroke="#181818" stroke-width="0.50"></line><line x1="1648.90" y1="946.00" x2="1807.14" y2="946.00" stroke="#181818" stroke-width="0.50"></line><text x="1653.90" y="962.00" font-size="14" fill="#000000" xml:space="preserve" style="white-space: pre" font-family="sans-serif">+subirPersiana(): void</text><text x="1653.90" y="977.00" font-size="14" fill="#000000" xml:space="preserve" style="white-space: pre" font-family="sans-serif">+descerPersiana(): void</text><text x="1653.90" y="992.00" font-size="14" fill="#000000" xml:space="preserve" style="white-space: pre" font-family="sans-serif">+estaAberta(): boolean</text></g><g class="entity" data-entity="PersianaNatLight" data-qualified-name="br.furb.analise.algoritmos.PersianaNatLight" id="ent0020" data-source-line="91"><rect x="1623.37" y="1098.50" width="209.31" height="131" rx="2.50" ry="2.50" fill="#F1F1F1" stroke="#181818" stroke-width="0.50"></rect><text x="1674.32" y="1115.50" font-size="14" fill="#000000" xml:space="preserve" style="white-space: pre" font-family="sans-serif">PersianaNatLight</text><line x1="1624.37" y1="1123.50" x2="1831.68" y2="1123.50" stroke="#181818" stroke-width="0.50"></line><line x1="1624.37" y1="1131.50" x2="1831.68" y2="1131.50" stroke="#181818" stroke-width="0.50"></line><text x="1629.37" y="1147.50" font-size="14" fill="#000000" xml:space="preserve" style="white-space: pre" font-family="sans-serif">+abrirPalheta(): void</text><text x="1629.37" y="1162.50" font-size="14" fill="#000000" xml:space="preserve" style="white-space: pre" font-family="sans-serif">+fecharPalheta(): void</text><text x="1629.37" y="1177.50" font-size="14" fill="#000000" xml:space="preserve" style="white-space: pre" font-family="sans-serif">+subirPalheta(): void</text><text x="1629.37" y="1192.50" font-size="14" fill="#000000" xml:space="preserve" style="white-space: pre" font-family="sans-serif">+descerPalheta(): void</text><text x="1629.37" y="1207.50" font-size="14" fill="#000000" xml:space="preserve" style="white-space: pre" font-family="sans-serif">+estaPalhetaAberta(): boolean</text><text x="1629.37" y="1222.50" font-size="14" fill="#000000" xml:space="preserve" style="white-space: pre" font-family="sans-serif">+estaPalhetaErguida(): boolean</text></g><g class="entity" data-entity="ArCondicionadoVentoBaumn" data-qualified-name="br.furb.analise.algoritmos.ArCondicionadoVentoBaumn" id="ent0021" data-source-line="100"><rect x="1589.16" y="310.50" width="277.73" height="101" rx="2.50" ry="2.50" fill="#F1F1F1" stroke="#181818" stroke-width="0.50"></rect><text x="1638.13" y="327.50" font-size="14" fill="#000000" xml:space="preserve" style="white-space: pre" font-family="sans-serif">ArCondicionadoVentoBaumn</text><line x1="1590.16" y1="335.50" x2="1865.89" y2="335.50" stroke="#181818" stroke-width="0.50"></line><line x1="1590.16" y1="343.50" x2="1865.89" y2="343.50" stroke="#181818" stroke-width="0.50"></line><text x="1595.16" y="359.50" font-size="14" fill="#000000" xml:space="preserve" style="white-space: pre" font-family="sans-serif">+ligar(): void</text><text x="1595.16" y="374.50" font-size="14" fill="#000000" xml:space="preserve" style="white-space: pre" font-family="sans-serif">+desligar(): void</text><text x="1595.16" y="389.50" font-size="14" fill="#000000" xml:space="preserve" style="white-space: pre" font-family="sans-serif">+definirTemperatura(temperatura: int): void</text><text x="1595.16" y="404.50" font-size="14" fill="#000000" xml:space="preserve" style="white-space: pre" font-family="sans-serif">+getTemperatura(): int</text></g><g class="entity" data-entity="ArCondicionadoGellaKaza" data-qualified-name="br.furb.analise.algoritmos.ArCondicionadoGellaKaza" id="ent0022" data-source-line="107"><rect x="1627.67" y="682.50" width="200.70" height="131" rx="2.50" ry="2.50" fill="#F1F1F1" stroke="#181818" stroke-width="0.50"></rect><text x="1645.91" y="699.50" font-size="14" fill="#000000" xml:space="preserve" style="white-space: pre" font-family="sans-serif">ArCondicionadoGellaKaza</text><line x1="1628.67" y1="707.50" x2="1827.37" y2="707.50" stroke="#181818" stroke-width="0.50"></line><line x1="1628.67" y1="715.50" x2="1827.37" y2="715.50" stroke="#181818" stroke-width="0.50"></line><text x="1633.67" y="731.50" font-size="14" fill="#000000" xml:space="preserve" style="white-space: pre" font-family="sans-serif">+ativar(): void</text><text x="1633.67" y="746.50" font-size="14" fill="#000000" xml:space="preserve" style="white-space: pre" font-family="sans-serif">+desativar(): void</text><text x="1633.67" y="761.50" font-size="14" fill="#000000" xml:space="preserve" style="white-space: pre" font-family="sans-serif">+aumentarTemperatura(): void</text><text x="1633.67" y="776.50" font-size="14" fill="#000000" xml:space="preserve" style="white-space: pre" font-family="sans-serif">+diminuirTemperatura(): void</text><text x="1633.67" y="791.50" font-size="14" fill="#000000" xml:space="preserve" style="white-space: pre" font-family="sans-serif">+getTemperatura(): int</text><text x="1633.67" y="806.50" font-size="14" fill="#000000" xml:space="preserve" style="white-space: pre" font-family="sans-serif">+estaLigado(): boolean</text></g><g class="entity" data-entity="CasaInteligente" data-qualified-name="CasaInteligente" id="ent0023" data-source-line="117"><rect x="7" y="318.50" width="298.02" height="161" rx="2.50" ry="2.50" fill="#F1F1F1" stroke="#181818" stroke-width="0.50"></rect><text x="107.36" y="335.50" font-size="14" fill="#000000" xml:space="preserve" style="white-space: pre" font-family="sans-serif">CasaInteligente</text><line x1="8" y1="343.50" x2="304.02" y2="343.50" stroke="#181818" stroke-width="0.50"></line><text x="13" y="359.50" font-size="14" fill="#000000" xml:space="preserve" style="white-space: pre" font-family="sans-serif">-lampadas: List&lt;Lampada&gt;</text><text x="13" y="374.50" font-size="14" fill="#000000" xml:space="preserve" style="white-space: pre" font-family="sans-serif">-aresCondicionados: List&lt;ArCondicionado&gt;</text><text x="13" y="389.50" font-size="14" fill="#000000" xml:space="preserve" style="white-space: pre" font-family="sans-serif">-persianas: List&lt;Persiana&gt;</text><line x1="8" y1="396.50" x2="304.02" y2="396.50" stroke="#181818" stroke-width="0.50"></line><text x="13" y="412.50" font-size="14" fill="#000000" xml:space="preserve" style="white-space: pre" font-family="sans-serif">+adicionarLampada(lampada: Lampada): void</text><text x="13" y="427.50" font-size="14" fill="#000000" xml:space="preserve" style="white-space: pre" font-family="sans-serif">+adicionarPersiana(persiana: Persiana): void</text><text x="13" y="442.50" font-size="14" fill="#000000" xml:space="preserve" style="white-space: pre" font-family="sans-serif">+adicionarAr(ar: ArCondicionado): void</text><text x="13" y="457.50" font-size="14" fill="#000000" xml:space="preserve" style="white-space: pre" font-family="sans-serif">+ativarModoSono(): void</text><text x="13" y="472.50" font-size="14" fill="#000000" xml:space="preserve" style="white-space: pre" font-family="sans-serif">+ativarModoTrabalho(): void</text></g><g class="entity" data-entity="DispositivosFactory" data-qualified-name="DispositivosFactory" id="ent0024" data-source-line="128"><rect x="518.02" y="804.00" width="395.27" height="86" rx="2.50" ry="2.50" fill="#F1F1F1" stroke="#181818" stroke-width="0.50"></rect><text x="654.97" y="821.00" font-size="14" fill="#000000" xml:space="preserve" style="white-space: pre" font-family="sans-serif">DispositivosFactory</text><line x1="519.02" y1="829.00" x2="912.29" y2="829.00" stroke="#181818" stroke-width="0.50"></line><line x1="519.02" y1="837.00" x2="912.29" y2="837.00" stroke="#181818" stroke-width="0.50"></line><text x="524.02" y="853.00" font-size="14" fill="#000000" xml:space="preserve" style="white-space: pre" font-family="sans-serif">+criarAdaptadorLampada(obj: Object): Lampada</text><text x="524.02" y="868.00" font-size="14" fill="#000000" xml:space="preserve" style="white-space: pre" font-family="sans-serif">+criarAdaptadorPersiana(obj: Object): Persiana</text><text x="524.02" y="883.00" font-size="14" fill="#000000" xml:space="preserve" style="white-space: pre" font-family="sans-serif">+criarAdaptadorArCondicionado(obj: Object): ArCondicionado</text></g><g class="entity" data-entity="GMN46" data-qualified-name="GMN46" id="ent0047" data-source-line="164"><path d="M1092.69,1330.62 L1092.69,1369.37 L1360.35,1369.37 L1360.35,1340.62 L1350.35,1330.62 L1092.69,1330.62" fill="#FEFFDD" stroke="#181818" stroke-width="0.50"></path><path d="M1350.35,1330.62 L1350.35,1340.62 L1360.35,1340.62 L1350.35,1330.62" fill="#FEFFDD" stroke="#181818" stroke-width="1"></path><text x="1098.69" y="1347.62" font-size="13" fill="#000000" xml:space="preserve" style="white-space: pre" font-family="sans-serif">Pré-condição: obj != null.</text><text x="1098.69" y="1361.37" font-size="13" fill="#000000" xml:space="preserve" style="white-space: pre" font-family="sans-serif">Tipos não suportados devem falhar rápido.</text></g><g class="entity" data-entity="GMN49" data-qualified-name="GMN49" id="ent0050" data-source-line="169"><path d="M1565.76,1329.62 L1565.76,1368.37 L1890.29,1368.37 L1890.29,1339.62 L1880.29,1329.62 L1565.76,1329.62" fill="#FEFFDD" stroke="#181818" stroke-width="0.50"></path><path d="M1880.29,1329.62 L1880.29,1339.62 L1890.29,1339.62 L1880.29,1329.62" fill="#FEFFDD" stroke="#181818" stroke-width="1"></path><text x="1571.76" y="1346.62" font-size="13" fill="#000000" xml:space="preserve" style="white-space: pre" font-family="sans-serif">Erros do fabricante podem lançar Exception;</text><text x="1571.76" y="1360.37" font-size="13" fill="#000000" xml:space="preserve" style="white-space: pre" font-family="sans-serif">o adaptador pode encapsular em RuntimeException.</text></g><g class="link" data-entity-1="Lampada" data-entity-2="LampadaInteligentePhellipesAdaptador" data-entity-1-uid="ent0003" data-entity-2-uid="ent0007" id="lnk25" data-source-line="135" data-link-type="extension"><path d="M790.11,226.25 C874.28,226.25 1004.89,226.25 1004.89,226.25 C1004.89,226.25 1004.89,537.75 1004.89,537.75 C1004.89,537.75 1050.99,537.75 1101.13,537.75" fill="none" stroke="#181818" stroke-width="1"></path><polygon points="772.11,226.25 790.11,232.25 790.11,220.25 772.11,226.25" fill="#00000000" stroke="#181818" stroke-width="1"></polygon></g><g class="link" data-entity-1="Lampada" data-entity-2="LampadaInteligenteShoyouMiAdaptador" data-entity-1-uid="ent0003" data-entity-2-uid="ent0008" id="lnk26" data-source-line="136" data-link-type="extension"><path d="M715.89,152.23 C715.89,126.68 715.89,114.83 715.89,114.83 C715.89,114.83 947.07,114.83 1098.33,114.83" fill="none" stroke="#181818" stroke-width="1"></path><polygon points="715.89,170.23 721.89,152.23 709.89,152.23 715.89,170.23" fill="#00000000" stroke="#181818" stroke-width="1"></polygon></g><g class="link" data-entity-1="Persiana" data-entity-2="PersianaSolariusAdaptador" data-entity-1-uid="ent0004" data-entity-2-uid="ent0009" id="lnk27" data-source-line="137" data-link-type="extension"><path d="M784.98,612.5 C860.29,612.5 973.89,612.5 973.89,612.5 C973.89,612.5 973.89,978 973.89,978 C973.89,978 1043.11,978 1109.08,978" fill="none" stroke="#181818" stroke-width="1"></path><polygon points="766.98,612.50 784.98,618.50 784.98,606.50 766.98,612.50" fill="#00000000" stroke="#181818" stroke-width="1"></polygon></g><g class="link" data-entity-1="Persiana" data-entity-2="PersianaNatLightAdaptador" data-entity-1-uid="ent0004" data-entity-2-uid="ent0010" id="lnk28" data-source-line="138" data-link-type="extension"><path d="M784.87,620 C852.16,620 943.89,620 943.89,620 C943.89,620 943.89,1149.66 943.89,1149.66 C943.89,1149.66 1030.24,1149.66 1107.48,1149.66" fill="none" stroke="#181818" stroke-width="1"></path><polygon points="766.87,620.00 784.87,626.00 784.87,614.00 766.87,620.00" fill="#00000000" stroke="#181818" stroke-width="1"></polygon></g><g class="link" data-entity-1="ArCondicionado" data-entity-2="ArCondicionadoVentoBaumnAdaptador" data-entity-1-uid="ent0005" data-entity-2-uid="ent0011" id="lnk29" data-source-line="139" data-link-type="extension"><path d="M872.91,380 C928.46,380 975.31,380 1035.15,380" fill="none" stroke="#181818" stroke-width="1"></path><polygon points="854.91,380.00 872.91,386.00 872.91,374.00 854.91,380.00" fill="#00000000" stroke="#181818" stroke-width="1"></polygon></g><g class="link" data-entity-1="ArCondicionado" data-entity-2="ArCondicionadoGellaKazaAdaptador" data-entity-1-uid="ent0005" data-entity-2-uid="ent0012" id="lnk30" data-source-line="140" data-link-type="extension"><path d="M872.93,438 C974.3,438 1075.89,438 1075.89,438 C1075.89,438 1075.89,607.18 1075.89,704.01" fill="none" stroke="#181818" stroke-width="1"></path><polygon points="854.93,438.00 872.93,444.00 872.93,432.00 854.93,438.00" fill="#00000000" stroke="#181818" stroke-width="1"></polygon></g><g class="link" data-entity-1="LampadaInteligentePhellipesAdaptador" data-entity-2="LampadaPhellipes" data-entity-1-uid="ent0007" data-entity-2-uid="ent0014" id="lnk31" data-source-line="143" data-link-type="composition"><path d="M1364.1,550.75 C1440.99,550.75 1526.99,550.75 1603.65,550.75" fill="none" stroke="#181818" stroke-width="1"></path><polygon points="1352.10,550.75 1358.10,554.75 1364.10,550.75 1358.10,546.75 1352.10,550.75" fill="#181818" stroke="#181818" stroke-width="1"></polygon><text x="1468.76" y="536.75" font-size="13" fill="#000000" xml:space="preserve" style="white-space: pre" font-family="sans-serif">adaptee</text><text x="1490.45" y="551.75" font-size="13" fill="#000000" xml:space="preserve" style="white-space: pre" font-family="sans-serif"> </text><text x="1359.57" y="561.25" font-size="13" fill="#000000" xml:space="preserve" style="white-space: pre" font-family="sans-serif">1</text><text x="1588.86" y="562.15" font-size="13" fill="#000000" xml:space="preserve" style="white-space: pre" font-family="sans-serif">1</text></g><g class="link" data-entity-1="LampadaInteligenteShoyouMiAdaptador" data-entity-2="LampadaShoyuMi" data-entity-1-uid="ent0008" data-entity-2-uid="ent0018" id="lnk32" data-source-line="144" data-link-type="composition"><path d="M1366.7,149 C1459.85,149 1570.94,149 1649.82,149" fill="none" stroke="#181818" stroke-width="1"></path><polygon points="1354.70,149 1360.70,153 1366.70,149 1360.70,145 1354.70,149" fill="#181818" stroke="#181818" stroke-width="1"></polygon><text x="1468.76" y="130.75" font-size="13" fill="#000000" xml:space="preserve" style="white-space: pre" font-family="sans-serif">adaptee</text><text x="1490.45" y="145.75" font-size="13" fill="#000000" xml:space="preserve" style="white-space: pre" font-family="sans-serif"> </text><text x="1362.32" y="161.25" font-size="13" fill="#000000" xml:space="preserve" style="white-space: pre" font-family="sans-serif">1</text><text x="1635.04" y="158.59" font-size="13" fill="#000000" xml:space="preserve" style="white-space: pre" font-family="sans-serif">1</text></g><g class="link" data-entity-1="PersianaSolariusAdaptador" data-entity-2="PersianaSolarius" data-entity-1-uid="ent0009" data-entity-2-uid="ent0019" id="lnk33" data-source-line="145" data-link-type="composition"><path d="M1356.1,967 C1449.47,967 1565.54,967 1647.55,967" fill="none" stroke="#181818" stroke-width="1"></path><polygon points="1344.10,967.00 1350.10,971.00 1356.10,967.00 1350.10,963.00 1344.10,967.00" fill="#181818" stroke="#181818" stroke-width="1"></polygon><text x="1468.76" y="948.75" font-size="13" fill="#000000" xml:space="preserve" style="white-space: pre" font-family="sans-serif">adaptee</text><text x="1490.45" y="963.75" font-size="13" fill="#000000" xml:space="preserve" style="white-space: pre" font-family="sans-serif"> </text><text x="1351.86" y="977.49" font-size="13" fill="#000000" xml:space="preserve" style="white-space: pre" font-family="sans-serif">1</text><text x="1632.56" y="979.45" font-size="13" fill="#000000" xml:space="preserve" style="white-space: pre" font-family="sans-serif">1</text></g><g class="link" data-entity-1="PersianaNatLightAdaptador" data-entity-2="PersianaNatLight" data-entity-1-uid="ent0010" data-entity-2-uid="ent0020" id="lnk34" data-source-line="146" data-link-type="composition"><path d="M1357.69,1149.66 C1441.99,1149.66 1541.97,1149.66 1622.93,1149.66" fill="none" stroke="#181818" stroke-width="1"></path><polygon points="1345.69,1149.66 1351.69,1153.66 1357.69,1149.66 1351.69,1145.66 1345.69,1149.66" fill="#181818" stroke="#181818" stroke-width="1"></polygon><text x="1468.76" y="1145.75" font-size="13" fill="#000000" xml:space="preserve" style="white-space: pre" font-family="sans-serif">adaptee</text><text x="1490.45" y="1160.75" font-size="13" fill="#000000" xml:space="preserve" style="white-space: pre" font-family="sans-serif"> </text><text x="1353.56" y="1159.93" font-size="13" fill="#000000" xml:space="preserve" style="white-space: pre" font-family="sans-serif">1</text><text x="1608.30" y="1159.89" font-size="13" fill="#000000" xml:space="preserve" style="white-space: pre" font-family="sans-serif">1</text></g><g class="link" data-entity-1="ArCondicionadoVentoBaumnAdaptador" data-entity-2="ArCondicionadoVentoBaumn" data-entity-1-uid="ent0011" data-entity-2-uid="ent0021" id="lnk35" data-source-line="147" data-link-type="composition"><path d="M1429.91,361 C1486.76,361 1535.93,361 1588.8,361" fill="none" stroke="#181818" stroke-width="1"></path><polygon points="1417.91,361.00 1423.91,365.00 1429.91,361.00 1423.91,357.00 1417.91,361.00" fill="#181818" stroke="#181818" stroke-width="1"></polygon><text x="1468.76" y="335.75" font-size="13" fill="#000000" xml:space="preserve" style="white-space: pre" font-family="sans-serif">adaptee</text><text x="1490.45" y="350.75" font-size="13" fill="#000000" xml:space="preserve" style="white-space: pre" font-family="sans-serif"> </text><text x="1425.53" y="372.60" font-size="13" fill="#000000" xml:space="preserve" style="white-space: pre" font-family="sans-serif">1</text><text x="1574.00" y="372.13" font-size="13" fill="#000000" xml:space="preserve" style="white-space: pre" font-family="sans-serif">1</text></g><g class="link" data-entity-1="ArCondicionadoGellaKazaAdaptador" data-entity-2="ArCondicionadoGellaKaza" data-entity-1-uid="ent0012" data-entity-2-uid="ent0022" id="lnk36" data-source-line="148" data-link-type="composition"><path d="M1414.63,759 C1489.84,759 1562.92,759 1627.21,759" fill="none" stroke="#181818" stroke-width="1"></path><polygon points="1402.63,759.00 1408.63,763.00 1414.63,759.00 1408.63,755.00 1402.63,759.00" fill="#181818" stroke="#181818" stroke-width="1"></polygon><text x="1468.76" y="740.75" font-size="13" fill="#000000" xml:space="preserve" style="white-space: pre" font-family="sans-serif">adaptee</text><text x="1490.45" y="755.75" font-size="13" fill="#000000" xml:space="preserve" style="white-space: pre" font-family="sans-serif"> </text><text x="1410.21" y="769.58" font-size="13" fill="#000000" xml:space="preserve" style="white-space: pre" font-family="sans-serif">1</text><text x="1612.56" y="771.06" font-size="13" fill="#000000" xml:space="preserve" style="white-space: pre" font-family="sans-serif">1</text></g><g class="link" data-entity-1="CasaInteligente" data-entity-2="Lampada" data-entity-1-uid="ent0023" data-entity-2-uid="ent0003" id="lnk37" data-source-line="151" data-link-type="aggregation"><path d="M317.31,329.75 C483.17,329.75 715.89,329.75 715.89,329.75 C715.89,329.75 715.89,278.34 715.89,241.79" fill="none" stroke="#181818" stroke-width="1"></path><polygon points="305.31,329.75 311.31,333.75 317.31,329.75 311.31,325.75 305.31,329.75" fill="#00000000" stroke="#181818" stroke-width="1"></polygon><text x="383.52" y="239.75" font-size="13" fill="#000000" xml:space="preserve" style="white-space: pre" font-family="sans-serif">lampadas</text><text x="313.19" y="337.28" font-size="13" fill="#000000" xml:space="preserve" style="white-space: pre" font-family="sans-serif">1</text><text x="695.29" y="260.14" font-size="13" fill="#000000" xml:space="preserve" style="white-space: pre" font-family="sans-serif">0..*</text></g><g class="link" data-entity-1="CasaInteligente" data-entity-2="Persiana" data-entity-1-uid="ent0023" data-entity-2-uid="ent0004" id="lnk38" data-source-line="152" data-link-type="aggregation"><path d="M317.31,468.25 C483.17,468.25 715.89,468.25 715.89,468.25 C715.89,468.25 715.89,519.65 715.89,556.2" fill="none" stroke="#181818" stroke-width="1"></path><polygon points="305.31,468.25 311.31,472.25 317.31,468.25 311.31,464.25 305.31,468.25" fill="#00000000" stroke="#181818" stroke-width="1"></polygon><text x="383.52" y="551.75" font-size="13" fill="#000000" xml:space="preserve" style="white-space: pre" font-family="sans-serif">persianas</text><text x="313.19" y="482.93" font-size="13" fill="#000000" xml:space="preserve" style="white-space: pre" font-family="sans-serif">1</text><text x="695.03" y="545.30" font-size="13" fill="#000000" xml:space="preserve" style="white-space: pre" font-family="sans-serif">0..*</text></g><g class="link" data-entity-1="CasaInteligente" data-entity-2="ArCondicionado" data-entity-1-uid="ent0023" data-entity-2-uid="ent0005" id="lnk39" data-source-line="153" data-link-type="aggregation"><path d="M317.25,399 C401.43,399 493.95,399 576.44,399" fill="none" stroke="#181818" stroke-width="1"></path><polygon points="305.25,399.00 311.25,403.00 317.25,399.00 311.25,395.00 305.25,399.00" fill="#00000000" stroke="#181818" stroke-width="1"></polygon><text x="356.02" y="395.75" font-size="13" fill="#000000" xml:space="preserve" style="white-space: pre" font-family="sans-serif">aresCondicionados</text><text x="313.13" y="410.10" font-size="13" fill="#000000" xml:space="preserve" style="white-space: pre" font-family="sans-serif">1</text><text x="549.32" y="410.13" font-size="13" fill="#000000" xml:space="preserve" style="white-space: pre" font-family="sans-serif">0..*</text></g><g class="link" data-entity-1="DispositivosFactory" data-entity-2="LampadaInteligentePhellipesAdaptador" data-entity-1-uid="ent0024" data-entity-2-uid="ent0007" id="lnk40" data-source-line="156" data-link-type="dependency"><path d="M893.89,803.62 C893.89,728.18 893.89,580.75 893.89,580.75 C893.89,580.75 1000.95,580.75 1095.24,580.75" fill="none" stroke="#181818" stroke-width="1"></path><polygon points="1101.24,580.75 1092.24,576.75 1096.24,580.75 1092.24,584.75 1101.24,580.75" fill="#181818" stroke="#181818" stroke-width="1"></polygon><text x="964.29" y="616.75" font-size="13" fill="#000000" xml:space="preserve" style="white-space: pre" font-family="sans-serif">cria</text></g><g class="link" data-entity-1="DispositivosFactory" data-entity-2="LampadaInteligenteShoyouMiAdaptador" data-entity-1-uid="ent0024" data-entity-2-uid="ent0008" id="lnk41" data-source-line="157" data-link-type="dependency"><path d="M873.89,803.73 C873.89,650.49 873.89,142.66 873.89,142.66 C873.89,142.66 991.39,142.66 1092.22,142.66" fill="none" stroke="#181818" stroke-width="1"></path><polygon points="1098.22,142.66 1089.22,138.66 1093.22,142.66 1089.22,146.66 1098.22,142.66" fill="#181818" stroke="#181818" stroke-width="1"></polygon><text x="964.29" y="162.75" font-size="13" fill="#000000" xml:space="preserve" style="white-space: pre" font-family="sans-serif">cria</text></g><g class="link" data-entity-1="DispositivosFactory" data-entity-2="PersianaSolariusAdaptador" data-entity-1-uid="ent0024" data-entity-2-uid="ent0009" id="lnk42" data-source-line="158" data-link-type="dependency"><path d="M913.67,853.66 C1057.46,853.66 1226.89,853.66 1226.89,853.66 C1226.89,853.66 1226.89,892.66 1226.89,928.51" fill="none" stroke="#181818" stroke-width="1"></path><polygon points="1226.89,934.51 1230.89,925.51 1226.89,929.51 1222.89,925.51 1226.89,934.51" fill="#181818" stroke="#181818" stroke-width="1"></polygon><text x="964.29" y="1070.75" font-size="13" fill="#000000" xml:space="preserve" style="white-space: pre" font-family="sans-serif">cria</text></g><g class="link" data-entity-1="DispositivosFactory" data-entity-2="PersianaNatLightAdaptador" data-entity-1-uid="ent0024" data-entity-2-uid="ent0010" id="lnk43" data-source-line="159" data-link-type="dependency"><path d="M715.89,890.31 C715.89,980.12 715.89,1178.33 715.89,1178.33 C715.89,1178.33 950.56,1178.33 1101.45,1178.33" fill="none" stroke="#181818" stroke-width="1"></path><polygon points="1107.45,1178.33 1098.45,1174.33 1102.45,1178.33 1098.45,1182.33 1107.45,1178.33" fill="#181818" stroke="#181818" stroke-width="1"></polygon><text x="964.29" y="1190.75" font-size="13" fill="#000000" xml:space="preserve" style="white-space: pre" font-family="sans-serif">cria</text></g><g class="link" data-entity-1="DispositivosFactory" data-entity-2="ArCondicionadoVentoBaumnAdaptador" data-entity-1-uid="ent0024" data-entity-2-uid="ent0011" id="lnk44" data-source-line="160" data-link-type="dependency"><path d="M913.56,814.5 C982.47,814.5 1042.89,814.5 1042.89,814.5 C1042.89,814.5 1042.89,557.31 1042.89,425.46" fill="none" stroke="#181818" stroke-width="1"></path><polygon points="1042.89,419.46 1038.89,428.46 1042.89,424.46 1046.89,428.46 1042.89,419.46" fill="#181818" stroke="#181818" stroke-width="1"></polygon><text x="964.29" y="389.75" font-size="13" fill="#000000" xml:space="preserve" style="white-space: pre" font-family="sans-serif">cria</text></g><g class="link" data-entity-1="DispositivosFactory" data-entity-2="ArCondicionadoGellaKazaAdaptador" data-entity-1-uid="ent0024" data-entity-2-uid="ent0012" id="lnk45" data-source-line="161" data-link-type="dependency"><path d="M913.53,825 C958.71,825 1000.43,825 1044.62,825" fill="none" stroke="#181818" stroke-width="1"></path><polygon points="1050.62,825.00 1041.62,821.00 1045.62,825.00 1041.62,829.00 1050.62,825.00" fill="#181818" stroke="#181818" stroke-width="1"></polygon><text x="964.29" y="843.75" font-size="13" fill="#000000" xml:space="preserve" style="white-space: pre" font-family="sans-serif">cria</text></g><g class="link" data-entity-1="DispositivosFactory" data-entity-2="GMN46" data-entity-1-uid="ent0024" data-entity-2-uid="ent0047" id="lnk48" data-source-line="164" data-link-type="association"><path d="M913.68,871.83 C1007.73,871.83 1099.89,871.83 1099.89,871.83 C1099.89,871.83 1099.89,1240.38 1099.89,1330.36" fill="none" stroke="#181818" stroke-width="1"></path></g><g class="link" data-entity-1="PersianaNatLightAdaptador" data-entity-2="GMN49" data-entity-1-uid="ent0010" data-entity-2-uid="ent0050" id="lnk51" data-source-line="169" data-link-type="association"><path d="M1345.48,1178.33 C1447.41,1178.33 1577.89,1178.33 1577.89,1178.33 C1577.89,1178.33 1577.89,1284.59 1577.89,1329.42" fill="none" stroke="#181818" stroke-width="1"></path></g></g></svg>